<svg width="1200" height="800" viewBox="0 0 1200 800" fill="none" xmlns="http://www.w3.org/2000/svg">
  <rect width="1200" height="800" rx="48" fill="#EFF7FF"/>
  <circle cx="1020" cy="150" r="140" fill="#D6F4FF"/>
  <circle cx="170" cy="650" r="170" fill="#DFF7F2"/>
  <rect x="90" y="90" width="1020" height="620" rx="36" fill="white" stroke="#D7E7F2" stroke-width="4"/>
  <rect x="140" y="140" width="360" height="220" rx="28" fill="#0F2344"/>
  <text x="180" y="200" fill="#7FE7FF" font-family="Arial, sans-serif" font-size="28" font-weight="700">MONTH-END CLOSE</text>
  <text x="180" y="280" fill="white" font-family="Arial, sans-serif" font-size="76" font-weight="700">12</text>
  <text x="180" y="325" fill="#C9D8E8" font-family="Arial, sans-serif" font-size="28">tasks pending</text>
  <rect x="560" y="140" width="500" height="28" rx="14" fill="#E9F5FB"/>
  <rect x="560" y="198" width="380" height="28" rx="14" fill="#E9F5FB"/>
  <rect x="560" y="256" width="450" height="28" rx="14" fill="#E9F5FB"/>
  <rect x="560" y="314" width="320" height="28" rx="14" fill="#E9F5FB"/>
  <rect x="140" y="410" width="920" height="220" rx="28" fill="#F8FBFF" stroke="#D7E7F2" stroke-width="3"/>
  <rect x="190" y="530" width="120" height="60" rx="18" fill="#15A7C9"/>
  <rect x="350" y="490" width="120" height="100" rx="18" fill="#0088C5"/>
  <rect x="510" y="450" width="120" height="140" rx="18" fill="#0F2344"/>
  <rect x="670" y="500" width="120" height="90" rx="18" fill="#39C39A"/>
  <rect x="830" y="470" width="120" height="120" rx="18" fill="#15A7C9"/>
  <path d="M190 470C270 430 340 470 430 420C520 370 620 450 710 410C800 370 875 405 950 350" stroke="#0F2344" stroke-width="10" stroke-linecap="round"/>
  <circle cx="190" cy="470" r="12" fill="#0F2344"/>
  <circle cx="430" cy="420" r="12" fill="#0F2344"/>
  <circle cx="710" cy="410" r="12" fill="#0F2344"/>
  <circle cx="950" cy="350" r="12" fill="#0F2344"/>
</svg>
