<svg width="1200" height="800" viewBox="0 0 1200 800" fill="none" xmlns="http://www.w3.org/2000/svg">
  <rect width="1200" height="800" rx="48" fill="#F4FBFF"/>
  <circle cx="1030" cy="690" r="170" fill="#D9F7F2"/>
  <circle cx="170" cy="150" r="120" fill="#D7F2FF"/>
  <rect x="110" y="110" width="980" height="580" rx="34" fill="white" stroke="#D7E7F2" stroke-width="4"/>
  <rect x="165" y="165" width="260" height="200" rx="24" fill="#F8FBFF" stroke="#D7E7F2" stroke-width="3"/>
  <rect x="215" y="215" width="160" height="20" rx="10" fill="#DDEFF9"/>
  <rect x="215" y="255" width="120" height="20" rx="10" fill="#DDEFF9"/>
  <rect x="215" y="295" width="140" height="20" rx="10" fill="#DDEFF9"/>
  <circle cx="295" cy="470" r="74" fill="#15A7C9"/>
  <circle cx="295" cy="470" r="44" fill="white"/>
  <path d="M470 470H650" stroke="#15A7C9" stroke-width="18" stroke-linecap="round" stroke-dasharray="18 24"/>
  <path d="M650 470L618 438" stroke="#15A7C9" stroke-width="18" stroke-linecap="round"/>
  <path d="M650 470L618 502" stroke="#15A7C9" stroke-width="18" stroke-linecap="round"/>
  <rect x="700" y="170" width="300" height="160" rx="24" fill="#0F2344"/>
  <text x="750" y="235" fill="#7FE7FF" font-family="Arial, sans-serif" font-size="28" font-weight="700">REMINDERS</text>
  <text x="750" y="285" fill="white" font-family="Arial, sans-serif" font-size="54" font-weight="700">AUTO</text>
  <rect x="700" y="390" width="300" height="160" rx="24" fill="#15A7C9"/>
  <text x="750" y="455" fill="white" font-family="Arial, sans-serif" font-size="28" font-weight="700">COLLECTIONS</text>
  <text x="750" y="505" fill="#0F2344" font-family="Arial, sans-serif" font-size="54" font-weight="700">SYNC</text>
</svg>
